{
  "accessors": [
    {
      "bufferView": 3,
      "componentType": 5126,
      "count": 6388,
      "max": [
        35.03532409667969,
        5.035243034362793,
        85.85873413085938
      ],
      "min": [
        -35.035316467285156,
        -6.638504505157471,
        -0.38580334186553955
      ],
      "type": "VEC3"
    },
    {
      "bufferView": 3,
      "byteOffset": 76656,
      "componentType": 5126,
      "count": 6388,
      "max": [
        1.0,
        1.0,
        1.0
      ],
      "min": [
        -1.0,
        -1.0,
        -1.0
      ],
      "type": "VEC3"
    },
    {
      "bufferView": 2,
      "componentType": 5126,
      "count": 6388,
      "max": [
        0.9888420104980469,
        0.9936749935150146
      ],
      "min": [
        0.007075999863445759,
        0.00959998369216919
      ],
      "type": "VEC2"
    },
    {
      "bufferView": 1,
      "componentType": 5125,
      "count": 35160,
      "type": "SCALAR"
    },
    {
      "bufferView": 3,
      "byteOffset": 153312,
      "componentType": 5126,
      "count": 166,
      "max": [
        4.6576080322265625,
        -1.7622973918914795,
        73.45442199707031
      ],
      "min": [
        -4.6576080322265625,
        -4.324933052062988,
        70.36993408203125
      ],
      "type": "VEC3"
    },
    {
      "bufferView": 3,
      "byteOffset": 155304,
      "componentType": 5126,
      "count": 166,
      "max": [
        0.7779603004455566,
        -0.4444090723991394,
        0.7838039398193359
      ],
      "min": [
        -0.777961015701294,
        -0.9894202351570129,
        -0.11060300469398499
      ],
      "type": "VEC3"
    },
    {
      "bufferView": 2,
      "byteOffset": 51104,
      "componentType": 5126,
      "count": 166,
      "max": [
        0.9819869995117188,
        0.9665589928627014
      ],
      "min": [
        0.619458019733429,
        0.6701260209083557
      ],
      "type": "VEC2"
    },
    {
      "bufferView": 1,
      "byteOffset": 140640,
      "componentType": 5125,
      "count": 720,
      "type": "SCALAR"
    },
    {
      "bufferView": 5,
      "componentType": 5126,
      "count": 52,
      "max": [
        1.0,
        0.9610652327537537,
        0.9999998807907104,
        0.0,
        0.4625723659992218,
        1.0,
        0.9999987483024597,
        0.0,
        0.9962788820266724,
        1.0,
        1.0,
        0.0,
        36.778263092041016,
        15.072961807250977,
        65.6041030883789,
        1.0
      ],
      "min": [
        -0.9999988079071045,
        -0.8779494762420654,
        -1.0,
        0.0,
        -0.9999505877494812,
        -0.9962788820266724,
        -1.0,
        0.0,
        -0.9977509379386902,
        -0.9978951215744019,
        -0.9999979138374329,
        0.0,
        -64.08518981933594,
        -78.62825775146484,
        -65.58045196533203,
        1.0
      ],
      "type": "MAT4"
    },
    {
      "bufferView": 0,
      "componentType": 5123,
      "count": 6388,
      "type": "VEC4"
    },
    {
      "bufferView": 4,
      "componentType": 5126,
      "count": 6388,
      "max": [
        1.0,
        0.49999698996543884,
        0.2592567503452301,
        0.0
      ],
      "min": [
        0.40273231267929077,
        0.0,
        0.0,
        0.0
      ],
      "type": "VEC4"
    },
    {
      "bufferView": 0,
      "byteOffset": 51104,
      "componentType": 5123,
      "count": 166,
      "type": "VEC4"
    },
    {
      "bufferView": 4,
      "byteOffset": 102208,
      "componentType": 5126,
      "count": 166,
      "max": [
        1.0,
        0.0,
        0.0,
        0.0
      ],
      "min": [
        1.0,
        0.0,
        0.0,
        0.0
      ],
      "type": "VEC4"
    }
  ],
  "asset": {
    "extras": {
      "author": "Shedletsky_2 (https://sketchfab.com/Shedletsky_2)",
      "license": "CC-BY-4.0 (http://creativecommons.org/licenses/by/4.0/)",
      "source": "https://sketchfab.com/3d-models/jax-f074d51aa6f94f8f922bf45b7fe662a0",
      "title": "Jax"
    },
    "generator": "Sketchfab-17.26.0",
    "version": "2.0"
  },
  "bufferViews": [
    {
      "buffer": 0,
      "byteLength": 52432,
      "byteStride": 8,
      "name": "shortBufferViews",
      "target": 34962
    },
    {
      "buffer": 0,
      "byteLength": 143520,
      "byteOffset": 52432,
      "name": "floatBufferViews",
      "target": 34963
    },
    {
      "buffer": 0,
      "byteLength": 52432,
      "byteOffset": 195952,
      "byteStride": 8,
      "name": "floatBufferViews",
      "target": 34962
    },
    {
      "buffer": 0,
      "byteLength": 157296,
      "byteOffset": 248384,
      "byteStride": 12,
      "name": "floatBufferViews",
      "target": 34962
    },
    {
      "buffer": 0,
      "byteLength": 104864,
      "byteOffset": 405680,
      "byteStride": 16,
      "name": "floatBufferViews",
      "target": 34962
    },
    {
      "buffer": 0,
      "byteLength": 3328,
      "byteOffset": 510544,
      "name": "floatBufferViews"
    }
  ],
  "buffers": [
    {
      "byteLength": 513872,
      "uri": "scene.bin"
    }
  ],
  "images": [
    {
      "uri": "textures/cuerpo_baseColor.jpeg"
    },
    {
      "uri": "textures/ojos_baseColor.jpeg"
    }
  ],
  "materials": [
    {
      "doubleSided": true,
      "name": "cuerpo",
      "pbrMetallicRoughness": {
        "baseColorTexture": {
          "index": 0
        },
        "metallicFactor": 0.0,
        "roughnessFactor": 0.9577051494623774
      }
    },
    {
      "doubleSided": true,
      "name": "ojos",
      "pbrMetallicRoughness": {
        "baseColorTexture": {
          "index": 1
        },
        "metallicFactor": 0.0,
        "roughnessFactor": 0.9577051494623774
      }
    }
  ],
  "meshes": [
    {
      "name": "mesh0_cuerpo_0",
      "primitives": [
        {
          "attributes": {
            "JOINTS_0": 9,
            "NORMAL": 1,
            "POSITION": 0,
            "TEXCOORD_0": 2,
            "TEXCOORD_1": 2,
            "TEXCOORD_2": 2,
            "WEIGHTS_0": 10
          },
          "indices": 3,
          "material": 0,
          "mode": 4
        }
      ]
    },
    {
      "name": "mesh1_ojos_0",
      "primitives": [
        {
          "attributes": {
            "JOINTS_0": 11,
            "NORMAL": 5,
            "POSITION": 4,
            "TEXCOORD_0": 6,
            "TEXCOORD_1": 6,
            "TEXCOORD_2": 6,
            "WEIGHTS_0": 12
          },
          "indices": 7,
          "material": 1,
          "mode": 4
        }
      ]
    }
  ],
  "nodes": [
    {
      "children": [
        1
      ],
      "matrix": [
        1.0,
        0.0,
        0.0,
        0.0,
        0.0,
        -1.0,
        -4.440892098500626e-16,
        0.0,
        0.0,
        4.440892098500626e-16,
        -1.0,
        0.0,
        0.0,
        0.0,
        0.0,
        1.0
      ],
      "name": "Sketchfab_model"
    },
    {
      "children": [
        2
      ],
      "matrix": [
        0.009999999776482582,
        0.0,
        0.0,
        0.0,
        0.0,
        0.0,
        0.009999999776482582,
        0.0,
        0.0,
        -0.009999999776482582,
        0.0,
        0.0,
        0.0,
        0.0,
        0.0,
        1.0
      ],
      "name": "472936385b174c0c80b88463fcae38e4.fbx"
    },
    {
      "children": [
        3
      ],
      "name": "RootNode"
    },
    {
      "children": [
        4,
        6,
        8,
        5,
        7
      ],
      "name": "Object_3"
    },
    {
      "children": [
        9
      ],
      "name": "_rootJoint"
    },
    {
      "matrix": [
        0.9999999999999999,
        2.117582368135751e-22,
        -5.048709793414476e-29,
        0.0,
        -2.1175823681357513e-22,
        1.0,
        -5.293955920339377e-23,
        0.0,
        5.048709793414476e-29,
        5.293955920339377e-23,
        1.0,
        0.0,
        4.235164736271502e-22,
        2.7755575615628914e-17,
        7.105427357601002e-15,
        1.0
      ],
      "name": "Object_5"
    },
    {
      "mesh": 0,
      "name": "Object_6",
      "skin": 0
    },
    {
      "matrix": [
        0.9999999999999999,
        0.0,
        -3.3881317890172014e-21,
        0.0,
        4.2600454136818323e-38,
        0.9999999999999999,
        1.257343479817102e-17,
        0.0,
        3.3881317890172014e-21,
        -1.2573434798171019e-17,
        0.9999999999999998,
        0.0,
        -4.336808689942018e-19,
        -4.440892098500626e-16,
        1.4210854715202004e-14,
        1.0
      ],
      "name": "Object_7"
    },
    {
      "mesh": 1,
      "name": "Object_8",
      "skin": 0
    },
    {
      "children": [
        10,
        14,
        56
      ],
      "name": "ValveBiped.Bip01_Pelvis_01",
      "rotation": [
        0.7071066498756409,
        3.5172814705219935e-07,
        3.5172826073903707e-07,
        0.70710688829422
      ],
      "scale": [
        1.0,
        0.9999999403953552,
        0.9999999403953552
      ],
      "translation": [
        9.999999974752427e-07,
        0.19116300344467163,
        37.92277145385742
      ]
    },
    {
      "children": [
        11
      ],
      "name": "ValveBiped.Bip01_L_Thigh_02",
      "rotation": [
        -0.5175010561943054,
        0.4820108711719513,
        -0.48187315464019775,
        0.5173552632331848
      ],
      "scale": [
        0.9999999403953552,
        0.9999999403953552,
        1.0
      ],
      "translation": [
        2.7282679080963135,
        -0.8576583862304688,
        9.98377799987793e-07
      ]
    },
    {
      "children": [
        12
      ],
      "name": "ValveBiped.Bip01_L_Calf_03",
      "rotation": [
        -0.0024674974847584963,
        0.001952516846358776,
        4.318506398703903e-06,
        0.9999950528144836
      ],
      "scale": [
        0.9999998807907104,
        0.9999999403953552,
        1.0000001192092896
      ],
      "translation": [
        16.05008888244629,
        -3.705918788909912e-05,
        -4.76837158203125e-07
      ]
    },
    {
      "children": [
        13
      ],
      "name": "ValveBiped.Bip01_L_Foot_04",
      "rotation": [
        0.00792599469423294,
        0.005467229522764683,
        -0.48257213830947876,
        0.8758032917976379
      ],
      "scale": [
        0.9999998211860657,
        1.0,
        1.0
      ],
      "translation": [
        17.690242767333984,
        -2.0712614059448242e-06,
        -2.384185791015625e-06
      ]
    },
    {
      "name": "ValveBiped.Bip01_L_Toe0_034",
      "rotation": [
        -0.0009005924221128225,
        -0.00152868521399796,
        -0.2741313874721527,
        0.9616907238960266
      ],
      "scale": [
        1.0,
        0.9999997615814209,
        1.0000001192092896
      ],
      "translation": [
        4.598891735076904,
        -0.3541090488433838,
        0.5030965805053711
      ]
    },
    {
      "children": [
        15
      ],
      "name": "ValveBiped.Bip01_Spine_05",
      "rotation": [
        0.47796884179115295,
        0.5210999250411987,
        0.477966845035553,
        0.521103024482727
      ],
      "scale": [
        1.0000001192092896,
        1.0,
        1.0000001192092896
      ],
      "translation": [
        -1.999999312829459e-06,
        5.694400787353516,
        9.98377799987793e-07
      ]
    },
    {
      "children": [
        16
      ],
      "name": "ValveBiped.Bip01_Spine1_06",
      "rotation": [
        -6.893795045925799e-08,
        5.529378768187598e-07,
        -0.014615039341151714,
        0.9998931884765625
      ],
      "scale": [
        1.0000001192092896,
        1.0000001192092896,
        1.000000238418579
      ]
    },
    {
      "children": [
        17
      ],
      "name": "ValveBiped.Bip01_Spine2_07",
      "rotation": [
        1.0289595593349077e-06,
        -2.1913954697083682e-05,
        0.05014289543032646,
        0.9987420439720154
      ],
      "scale": [
        1.000000238418579,
        1.000000238418579,
        1.000000238418579
      ],
      "translation": [
        0.0,
        0.0,
        -1.4551915228366852e-11
      ]
    },
    {
      "children": [
        18,
        34,
        50
      ],
      "name": "ValveBiped.Bip01_Spine4_08",
      "rotation": [
        1.8979144442710094e-06,
        2.6379171686130576e-05,
        0.096897192299366,
        0.9952945113182068
      ],
      "scale": [
        1.0000001192092896,
        1.0000003576278687,
        1.000000238418579
      ],
      "translation": [
        9.045753479003906,
        0.1374797523021698,
        -0.00044113933108747005
      ]
    },
    {
      "children": [
        19
      ],
      "name": "ValveBiped.Bip01_R_Clavicle_09",
      "rotation": [
        -0.4272758662700653,
        -0.5641201734542847,
        0.6300846934318542,
        -0.3196830153465271
      ],
      "scale": [
        0.9999997019767761,
        1.000000238418579,
        1.000000238418579
      ],
      "translation": [
        9.103828430175781,
        -1.6462926864624023,
        -1.764493703842163
      ]
    },
    {
      "children": [
        20
      ],
      "name": "ValveBiped.Bip01_R_UpperArm_010",
      "rotation": [
        0.6911042332649231,
        0.14839038252830505,
        0.1495916247367859,
        0.6913592219352722
      ],
      "scale": [
        0.9999998807907104,
        0.9999998211860657,
        0.9999999403953552
      ],
      "translation": [
        2.714702606201172,
        0.6017913818359375,
        0.0041771382093429565
      ]
    },
    {
      "children": [
        21
      ],
      "name": "ValveBiped.Bip01_R_Forearm_011",
      "rotation": [
        -0.00020971690537407994,
        0.015020058490335941,
        1.6998270439216867e-05,
        0.9998871684074402
      ],
      "scale": [
        0.9999999403953552,
        0.9999998211860657,
        0.9999997615814209
      ],
      "translation": [
        10.665596961975098,
        -3.0994415283203125e-06,
        -1.1444091796875e-05
      ]
    },
    {
      "children": [
        22,
        25,
        28,
        31
      ],
      "name": "ValveBiped.Bip01_R_Hand_018",
      "rotation": [
        -0.7045493721961975,
        -0.008143148384988308,
        0.08349621295928955,
        0.7046788334846497
      ],
      "scale": [
        0.9999998211860657,
        0.9999998807907104,
        0.9999998807907104
      ],
      "translation": [
        9.356791496276855,
        -1.7285346984863281e-06,
        -7.105427357601002e-15
      ]
    },
    {
      "children": [
        23
      ],
      "name": "ValveBiped.Bip01_R_Finger2_035",
      "rotation": [
        -0.01708029955625534,
        0.0011528474278748035,
        -0.054031237959861755,
        0.9983925819396973
      ],
      "scale": [
        0.9999998211860657,
        0.9999998211860657,
        1.0
      ],
      "translation": [
        4.720396041870117,
        -1.0821037292480469,
        -0.32944560050964355
      ]
    },
    {
      "children": [
        24
      ],
      "name": "ValveBiped.Bip01_R_Finger21_036",
      "rotation": [
        0.01599334366619587,
        -2.5219648591701116e-07,
        6.119721547293011e-06,
        0.9998722076416016
      ],
      "scale": [
        0.9999997615814209,
        0.9999998211860657,
        0.9999999403953552
      ],
      "translation": [
        2.3368759155273438,
        1.1444091796875e-05,
        -8.344650268554688e-07
      ]
    },
    {
      "name": "ValveBiped.Bip01_R_Finger22_037",
      "rotation": [
        -0.00024068095081020147,
        -0.0022163125686347485,
        -0.1079617589712143,
        0.9941525459289551
      ],
      "scale": [
        0.9999998211860657,
        0.9999999403953552,
        0.9999998807907104
      ],
      "translation": [
        1.7526741027832031,
        0.0,
        -1.430511474609375e-06
      ]
    },
    {
      "children": [
        26
      ],
      "name": "ValveBiped.Bip01_R_Finger1_038",
      "rotation": [
        -0.12166370451450348,
        0.18084608018398285,
        -0.030400646850466728,
        0.9754837155342102
      ],
      "scale": [
        0.9999999403953552,
        0.9999997615814209,
        0.9999999403953552
      ],
      "translation": [
        4.577756881713867,
        -1.077117919921875,
        -2.0865421295166016
      ]
    },
    {
      "children": [
        27
      ],
      "name": "ValveBiped.Bip01_R_Finger11_039",
      "rotation": [
        0.022068845108151436,
        -1.771122356331034e-06,
        3.6921944683854235e-06,
        0.9997564554214478
      ],
      "scale": [
        1.0,
        0.9999998211860657,
        0.9999998807907104
      ],
      "translation": [
        2.007741928100586,
        -3.814697265625e-06,
        -1.9073486328125e-06
      ]
    },
    {
      "name": "ValveBiped.Bip01_R_Finger12_040",
      "rotation": [
        -0.0002555168466642499,
        -0.002086261985823512,
        -0.12185166031122208,
        0.9925462007522583
      ],
      "scale": [
        0.9999998211860657,
        1.0,
        0.9999998807907104
      ],
      "translation": [
        1.5058040618896484,
        7.105427357601002e-15,
        0.0
      ]
    },
    {
      "children": [
        29
      ],
      "name": "ValveBiped.Bip01_R_Finger0_041",
      "rotation": [
        0.632291853427887,
        0.32640448212623596,
        -0.6116799712181091,
        0.34570902585983276
      ],
      "scale": [
        0.9999998807907104,
        0.9999998211860657,
        1.0000003576278687
      ],
      "translation": [
        1.7767887115478516,
        -0.7722282409667969,
        -1.9474244117736816
      ]
    },
    {
      "children": [
        30
      ],
      "name": "ValveBiped.Bip01_R_Finger01_042",
      "rotation": [
        0.06237514317035675,
        2.7623509595287032e-06,
        -3.0761116249777842e-06,
        0.9980527758598328
      ],
      "scale": [
        1.0000003576278687,
        0.9999998807907104,
        1.0000001192092896
      ],
      "translation": [
        2.0479164123535156,
        -1.9073486328125e-06,
        7.62939453125e-06
      ]
    },
    {
      "name": "ValveBiped.Bip01_R_Finger02_043",
      "rotation": [
        0.0008704378851689398,
        -0.004732667468488216,
        0.18044666945934296,
        0.9835730195045471
      ],
      "scale": [
        1.0000004768371582,
        0.9999997019767761,
        1.0000001192092896
      ],
      "translation": [
        1.5359439849853516,
        1.9073486328125e-06,
        0.0
      ]
    },
    {
      "children": [
        32
      ],
      "name": "ValveBiped.Bip01_R_Finger3_044",
      "rotation": [
        0.08761265873908997,
        -0.17883838713169098,
        -0.034693773835897446,
        0.97935551404953
      ],
      "scale": [
        0.9999995827674866,
        0.9999998211860657,
        1.000000238418579
      ],
      "translation": [
        4.55931282043457,
        -1.0540351867675781,
        1.443745732307434
      ]
    },
    {
      "children": [
        33
      ],
      "name": "ValveBiped.Bip01_R_Finger31_045",
      "rotation": [
        -0.002698497613891959,
        2.5244269181712298e-06,
        -2.8661827400355833e-06,
        0.9999963641166687
      ],
      "scale": [
        0.9999996423721313,
        0.9999997615814209,
        1.000000238418579
      ],
      "translation": [
        2.070415496826172,
        -1.1444091796875e-05,
        3.552713678800501e-15
      ]
    },
    {
      "name": "ValveBiped.Bip01_R_Finger32_046",
      "rotation": [
        -0.0010295253014191985,
        -0.004719478543847799,
        -0.21373029053211212,
        0.9768807888031006
      ],
      "scale": [
        0.9999993443489075,
        1.0000001192092896,
        1.000000238418579
      ],
      "translation": [
        1.55279541015625,
        3.814697265625e-06,
        1.9073486328125e-06
      ]
    },
    {
      "children": [
        35
      ],
      "name": "ValveBiped.Bip01_L_Clavicle_014",
      "rotation": [
        0.4254662096500397,
        0.5635373592376709,
        0.6315186619758606,
        -0.32029440999031067
      ],
      "scale": [
        1.0000001192092896,
        1.000000238418579,
        1.0000004768371582
      ],
      "translation": [
        9.103813171386719,
        -1.6462955474853516,
        1.7645692825317383
      ]
    },
    {
      "children": [
        36
      ],
      "name": "ValveBiped.Bip01_L_UpperArm_015",
      "rotation": [
        -0.6916720271110535,
        -0.150725319981575,
        0.14841757714748383,
        0.6905388832092285
      ],
      "scale": [
        1.0000003576278687,
        1.0,
        1.0000005960464478
      ],
      "translation": [
        2.7136783599853516,
        0.6063461303710938,
        0.008620619773864746
      ]
    },
    {
      "children": [
        37
      ],
      "name": "ValveBiped.Bip01_L_Forearm_016",
      "rotation": [
        -9.101854084292427e-05,
        -0.015019340440630913,
        -9.757978659763467e-06,
        0.999887228012085
      ],
      "scale": [
        1.0000003576278687,
        1.0000003576278687,
        1.0000001192092896
      ],
      "translation": [
        10.665595054626465,
        -2.9802322387695313e-06,
        7.62939453125e-06
      ]
    },
    {
      "children": [
        38,
        41,
        44,
        47
      ],
      "name": "ValveBiped.Bip01_L_Hand_017",
      "rotation": [
        0.7079651951789856,
        0.010070426389575005,
        0.08520785719156265,
        0.7010160684585571
      ],
      "scale": [
        1.0000003576278687,
        1.0,
        1.000000238418579
      ],
      "translation": [
        9.356813430786133,
        -5.0202012062072754e-05,
        0.0
      ]
    },
    {
      "children": [
        39
      ],
      "name": "ValveBiped.Bip01_L_Finger2_021",
      "rotation": [
        0.019128957763314247,
        -0.004118452314287424,
        -0.053989943116903305,
        0.9983497262001038
      ],
      "scale": [
        1.0000003576278687,
        0.9999999403953552,
        1.0
      ],
      "translation": [
        4.718652725219727,
        -1.0796394348144531,
        0.36105847358703613
      ]
    },
    {
      "children": [
        40
      ],
      "name": "ValveBiped.Bip01_L_Finger21_022",
      "rotation": [
        -0.016582805663347244,
        6.53067615985492e-07,
        -3.0400578907574527e-06,
        0.9998624920845032
      ],
      "scale": [
        1.0000003576278687,
        0.9999999403953552,
        1.0
      ],
      "translation": [
        2.3368701934814453,
        0.0,
        -2.384185791015625e-07
      ]
    },
    {
      "name": "ValveBiped.Bip01_L_Finger22_023",
      "rotation": [
        0.00016698450781404972,
        0.0015289834700524807,
        -0.1079859733581543,
        0.99415123462677
      ],
      "scale": [
        1.0000004768371582,
        0.9999998807907104,
        0.9999999403953552
      ],
      "translation": [
        1.7526607513427734,
        7.62939453125e-06,
        -2.384185791015625e-07
      ]
    },
    {
      "children": [
        42
      ],
      "name": "ValveBiped.Bip01_L_Finger1_024",
      "rotation": [
        0.12144137173891068,
        -0.18344971537590027,
        -0.028731966391205788,
        0.9750757217407227
      ],
      "scale": [
        1.0000003576278687,
        0.9999998211860657,
        1.000000238418579
      ],
      "translation": [
        4.567461013793945,
        -1.0605697631835938,
        2.1173453330993652
      ]
    },
    {
      "children": [
        43
      ],
      "name": "ValveBiped.Bip01_L_Finger11_025",
      "rotation": [
        -0.021158447489142418,
        1.1400765060898266e-06,
        -8.700577325271297e-08,
        0.9997761249542236
      ],
      "scale": [
        1.0000004768371582,
        0.9999998211860657,
        1.000000238418579
      ],
      "translation": [
        2.007741928100586,
        3.814697265625e-06,
        3.814697265625e-06
      ]
    },
    {
      "name": "ValveBiped.Bip01_L_Finger12_026",
      "rotation": [
        0.00015644625818822533,
        0.001287180231884122,
        -0.12185747921466827,
        0.9925468564033508
      ],
      "scale": [
        1.0000004768371582,
        0.9999995827674866,
        1.000000238418579
      ],
      "translation": [
        1.5057926177978516,
        3.814697265625e-06,
        0.0
      ]
    },
    {
      "children": [
        45
      ],
      "name": "ValveBiped.Bip01_L_Finger0_027",
      "rotation": [
        0.5850414037704468,
        0.40275701880455017,
        0.566490113735199,
        -0.4178543984889984
      ],
      "scale": [
        1.0000004768371582,
        1.000000238418579,
        1.0000001192092896
      ],
      "translation": [
        1.7672290802001953,
        -0.756683349609375,
        1.9621667861938477
      ]
    },
    {
      "children": [
        46
      ],
      "name": "ValveBiped.Bip01_L_Finger01_028",
      "rotation": [
        -0.04366414621472359,
        4.359307695267489e-06,
        -4.93689412905951e-06,
        0.999046266078949
      ],
      "scale": [
        1.0000003576278687,
        1.0000008344650269,
        1.0000001192092896
      ],
      "translation": [
        2.0479159355163574,
        3.552713678800501e-15,
        0.0
      ]
    },
    {
      "name": "ValveBiped.Bip01_L_Finger02_029",
      "rotation": [
        -0.0010083377128466964,
        0.005541131366044283,
        0.18043577671051025,
        0.9835706353187561
      ],
      "scale": [
        1.0000003576278687,
        1.000001072883606,
        1.0000001192092896
      ],
      "translation": [
        1.5359454154968262,
        -3.552713678800501e-15,
        7.62939453125e-06
      ]
    },
    {
      "children": [
        48
      ],
      "name": "ValveBiped.Bip01_L_Finger3_030",
      "rotation": [
        -0.09241517633199692,
        0.17635369300842285,
        -0.03547615930438042,
        0.9793367385864258
      ],
      "scale": [
        1.0000004768371582,
        0.9999999403953552,
        0.9999998807907104
      ],
      "translation": [
        4.566194534301758,
        -1.0657577514648438,
        -1.413064956665039
      ]
    },
    {
      "children": [
        49
      ],
      "name": "ValveBiped.Bip01_L_Finger31_031",
      "rotation": [
        0.004049378912895918,
        -1.4425106655835407e-06,
        -5.000323653803207e-06,
        0.9999918937683105
      ],
      "scale": [
        1.0000004768371582,
        1.0000001192092896,
        0.9999998807907104
      ],
      "translation": [
        2.070415496826172,
        -1.1444091796875e-05,
        1.9073486328125e-06
      ]
    },
    {
      "name": "ValveBiped.Bip01_L_Finger32_032",
      "rotation": [
        0.0007845817017368972,
        0.0035933805629611015,
        -0.21374723315238953,
        0.9768821001052856
      ],
      "scale": [
        1.0000008344650269,
        0.9999998807907104,
        1.0
      ],
      "translation": [
        1.5527973175048828,
        7.62939453125e-06,
        0.0
      ]
    },
    {
      "children": [
        51
      ],
      "name": "ValveBiped.Bip01_Neck1_019",
      "rotation": [
        0.9826610088348389,
        0.18541140854358673,
        1.0155278687307145e-05,
        3.715871912390867e-07
      ],
      "scale": [
        1.0,
        1.000000238418579,
        1.0000001192092896
      ],
      "translation": [
        9.59933090209961,
        -1.7358980178833008,
        4.077152698300779e-05
      ]
    },
    {
      "children": [
        52,
        54
      ],
      "name": "ValveBiped.Bip01_Head1_020",
      "rotation": [
        -3.0710411920154e-06,
        6.532022325700382e-06,
        0.1507950723171234,
        0.9885650277137756
      ],
      "scale": [
        1.0000001192092896,
        1.0000001192092896,
        1.0
      ],
      "translation": [
        3.1987876892089844,
        1.9694900512695313,
        5.647295620292425e-05
      ]
    },
    {
      "children": [
        53
      ],
      "name": "ear_3_047",
      "rotation": [
        0.3749014735221863,
        0.5995397567749023,
        -0.4885919690132141,
        0.5111544132232666
      ],
      "scale": [
        0.9999997019767761,
        1.000000238418579,
        1.0
      ],
      "translation": [
        7.596046447753906,
        2.5485496520996094,
        -3.4428398609161377
      ]
    },
    {
      "name": "ear_4_048",
      "rotation": [
        -8.23964825258372e-08,
        -2.404005272182985e-06,
        -0.005416993051767349,
        0.9999853372573853
      ],
      "scale": [
        0.9999999403953552,
        0.9999999403953552,
        0.9999998807907104
      ],
      "translation": [
        1.33514404296875e-05,
        5.434661865234375,
        -2.682209014892578e-06
      ]
    },
    {
      "children": [
        55
      ],
      "name": "ear_1_049",
      "rotation": [
        0.4909994602203369,
        0.5088382363319397,
        -0.3720654249191284,
        0.6013073325157166
      ],
      "scale": [
        0.9999996423721313,
        1.0000004768371582,
        1.0
      ],
      "translation": [
        7.414764404296875,
        2.5024585723876953,
        3.372537851333618
      ]
    },
    {
      "name": "ear_2_050",
      "rotation": [
        -3.496639422451153e-08,
        1.6066519492596854e-06,
        -0.0019335177494212985,
        0.999998152256012
      ],
      "scale": [
        0.9999998807907104,
        1.000000238418579,
        1.0
      ],
      "translation": [
        -1.71661376953125e-05,
        5.46343994140625,
        5.960464477539063e-07
      ]
    },
    {
      "children": [
        57
      ],
      "name": "ValveBiped.Bip01_R_Thigh_00",
      "rotation": [
        0.4818762540817261,
        -0.517356812953949,
        0.5174983143806458,
        -0.48200899362564087
      ],
      "scale": [
        1.0000001192092896,
        1.0,
        1.0
      ],
      "translation": [
        -2.7282700538635254,
        -0.8576583862304688,
        -1.9818544387817383e-06
      ]
    },
    {
      "children": [
        58
      ],
      "name": "ValveBiped.Bip01_R_Calf_012",
      "rotation": [
        0.0024390392936766148,
        -0.0019523861119523644,
        4.32298838859424e-06,
        0.9999951124191284
      ],
      "scale": [
        1.0000001192092896,
        1.0000001192092896,
        1.000000238418579
      ],
      "translation": [
        16.050098419189453,
        -1.6137957572937012e-05,
        -4.291534423828125e-06
      ]
    },
    {
      "children": [
        59
      ],
      "name": "ValveBiped.Bip01_R_Foot_013",
      "rotation": [
        -0.00554416049271822,
        -0.008051970973610878,
        -0.4824868440628052,
        0.875848650932312
      ],
      "scale": [
        1.0,
        1.0000001192092896,
        1.0
      ],
      "translation": [
        17.69024085998535,
        1.607835292816162e-05,
        -3.814697265625e-06
      ]
    },
    {
      "name": "ValveBiped.Bip01_R_Toe0_033",
      "rotation": [
        -0.028607754036784172,
        0.011364376172423363,
        -0.2742137610912323,
        0.9611760973930359
      ],
      "scale": [
        1.0,
        1.0000003576278687,
        1.0000001192092896
      ],
      "translation": [
        4.597687721252441,
        -0.35805320739746094,
        -0.5112524032592773
      ]
    }
  ],
  "samplers": [
    {
      "magFilter": 9729,
      "minFilter": 9987,
      "wrapS": 10497,
      "wrapT": 10497
    }
  ],
  "scene": 0,
  "scenes": [
    {
      "name": "Sketchfab_Scene",
      "nodes": [
        0
      ]
    }
  ],
  "skins": [
    {
      "inverseBindMatrices": 8,
      "joints": [
        4,
        9,
        10,
        11,
        12,
        13,
        14,
        15,
        16,
        17,
        18,
        19,
        20,
        21,
        22,
        23,
        24,
        25,
        26,
        27,
        28,
        29,
        30,
        31,
        32,
        33,
        34,
        35,
        36,
        37,
        38,
        39,
        40,
        41,
        42,
        43,
        44,
        45,
        46,
        47,
        48,
        49,
        50,
        51,
        52,
        53,
        54,
        55,
        56,
        57,
        58,
        59
      ],
      "skeleton": 4
    }
  ],
  "textures": [
    {
      "sampler": 0,
      "source": 0
    },
    {
      "sampler": 0,
      "source": 1
    }
  ]
}
